<svg id="Layer_1" data-name="Layer 1" xmlns="http://www.w3.org/2000/svg" viewBox="0 0 280 50"><defs><style>.cls-1{fill:#00bbf8;}.cls-2{fill:#004bdb;}.cls-3{fill:#00d6f5;}.cls-4{fill:#09e;}</style></defs><path class="cls-1" d="M0,49.39V.65C.11.74.22.83.32.93L24.08,24.68c.27.27.27.41,0,.68Q12.18,37.23.32,49.11C.22,49.21.11,49.29,0,49.39Z"/><path class="cls-2" d="M49.33,50H.68c.1-.1.18-.21.28-.31Q12.84,37.79,24.71,25.9c.24-.25.35-.25.6,0Q37.17,37.8,49.05,49.67C49.15,49.77,49.24,49.88,49.33,50Z"/><path class="cls-3" d="M25,24.34.63,0H49.3Z"/><path class="cls-4" d="M50,.72V49.39c-.16-.15-.28-.25-.39-.37C43.48,42.9,37.38,36.75,31.22,30.66c-1.8-1.78-3.58-3.58-5.41-5.34-.26-.25-.23-.38,0-.62,1.56-1.53,3.07-3.1,4.64-4.62C37,13.77,43.28,7.29,49.71.91a2.75,2.75,0,0,0,.17-.29Z"/><path d="M66.57,17.14H60.5V35.93H58V17.14H52V14.92H66.57Z"/><path d="M82,35.93H79.6V27.29q0-4.69-3.49-4.69a3.81,3.81,0,0,0-3,1.35A5.08,5.08,0,0,0,72,27.43v8.5h-2.4V13.71H72v9.71H72a5.45,5.45,0,0,1,4.92-2.85q5.07,0,5.07,6.12Z"/><path d="M98.59,29H88a5.62,5.62,0,0,0,1.35,3.87,4.63,4.63,0,0,0,3.54,1.36,7.32,7.32,0,0,0,4.66-1.67v2.26a8.69,8.69,0,0,1-5.23,1.44,6.36,6.36,0,0,1-5-2,8.37,8.37,0,0,1-1.81-5.75,8.22,8.22,0,0,1,2-5.71,6.38,6.38,0,0,1,4.93-2.21A5.64,5.64,0,0,1,97,22.48a7.91,7.91,0,0,1,1.61,5.29Zm-2.46-2a4.92,4.92,0,0,0-1-3.24,3.43,3.43,0,0,0-2.75-1.15,3.89,3.89,0,0,0-2.89,1.21A5.48,5.48,0,0,0,88,27Z"/><path d="M126.61,14.92l-5.94,21h-2.88l-4.33-15.36a9.32,9.32,0,0,1-.33-2.14h-.06a11.22,11.22,0,0,1-.38,2.11l-4.36,15.39h-2.85l-6.16-21H102L106.5,31a10.33,10.33,0,0,1,.35,2.11h.08a12.87,12.87,0,0,1,.45-2.11L112,14.92h2.36l4.45,16.24a10.65,10.65,0,0,1,.35,2h.06a11.38,11.38,0,0,1,.4-2l4.29-16.18Z"/><path d="M130.64,17.12a1.53,1.53,0,0,1-1.1-.44,1.57,1.57,0,0,1,1.1-2.69,1.55,1.55,0,0,1,1.12.45,1.57,1.57,0,0,1,0,2.22A1.56,1.56,0,0,1,130.64,17.12Zm1.17,18.81h-2.4v-15h2.4Z"/><path d="M149.14,35.93h-2.41V27.37q0-4.77-3.49-4.77a3.79,3.79,0,0,0-3,1.35,5.08,5.08,0,0,0-1.18,3.42v8.56h-2.4v-15h2.4v2.49h.06a5.42,5.42,0,0,1,4.93-2.85,4.58,4.58,0,0,1,3.76,1.59,7.1,7.1,0,0,1,1.31,4.6Z"/><path d="M166.47,35.93h-2.4V33.38H164a5.54,5.54,0,0,1-5.16,2.91,5.63,5.63,0,0,1-4.52-2,8.25,8.25,0,0,1-1.69-5.49,8.93,8.93,0,0,1,1.88-6,6.16,6.16,0,0,1,5-2.25A4.82,4.82,0,0,1,164,23h.06v-9.3h2.4Zm-2.4-6.78V26.94a4.29,4.29,0,0,0-1.2-3.08,4,4,0,0,0-3.05-1.26,4.14,4.14,0,0,0-3.46,1.61,7.05,7.05,0,0,0-1.26,4.45,6.34,6.34,0,0,0,1.21,4.1,4,4,0,0,0,3.25,1.5,4.1,4.1,0,0,0,3.26-1.45A5.43,5.43,0,0,0,164.07,29.15Z"/><path d="M177.61,36.29a7,7,0,0,1-5.31-2.11,7.8,7.8,0,0,1-2-5.57,8.11,8.11,0,0,1,2.07-5.91A7.42,7.42,0,0,1,178,20.57a6.71,6.71,0,0,1,5.24,2.07,8.18,8.18,0,0,1,1.89,5.73,8.06,8.06,0,0,1-2,5.75A7.1,7.1,0,0,1,177.61,36.29Zm.18-13.69a4.57,4.57,0,0,0-3.67,1.57,6.52,6.52,0,0,0-1.34,4.35,6.08,6.08,0,0,0,1.36,4.2,4.62,4.62,0,0,0,3.65,1.54,4.37,4.37,0,0,0,3.58-1.51,6.49,6.49,0,0,0,1.25-4.29,6.64,6.64,0,0,0-1.25-4.34A4.35,4.35,0,0,0,177.79,22.6Z"/><path d="M207.83,20.93l-4.5,15h-2.49l-3.09-10.74a6.2,6.2,0,0,1-.23-1.39h-.06a6.43,6.43,0,0,1-.31,1.36l-3.36,10.77h-2.4l-4.54-15h2.52l3.1,11.28a6.61,6.61,0,0,1,.21,1.35h.12a6.16,6.16,0,0,1,.26-1.38l3.46-11.25h2.2l3.1,11.31a7,7,0,0,1,.22,1.35h.12a6.11,6.11,0,0,1,.25-1.35l3.05-11.31Z"/><path d="M209.71,35.39V32.81A7.09,7.09,0,0,0,214,34.26c2.11,0,3.17-.7,3.17-2.11a1.85,1.85,0,0,0-.27-1,2.89,2.89,0,0,0-.74-.74,5.44,5.44,0,0,0-1.08-.57c-.42-.18-.86-.35-1.34-.54a15.43,15.43,0,0,1-1.75-.8,5,5,0,0,1-1.26-.91,3.34,3.34,0,0,1-.76-1.15,3.88,3.88,0,0,1-.26-1.51,3.64,3.64,0,0,1,.48-1.87,4.29,4.29,0,0,1,1.29-1.36,6.06,6.06,0,0,1,1.84-.83,8.41,8.41,0,0,1,2.13-.28,8.59,8.59,0,0,1,3.49.68v2.43a6.8,6.8,0,0,0-3.81-1.08,4.63,4.63,0,0,0-1.22.15,3.07,3.07,0,0,0-.93.43,2.12,2.12,0,0,0-.6.67,1.77,1.77,0,0,0-.21.86,1.88,1.88,0,0,0,.84,1.68,4.6,4.6,0,0,0,1,.56c.39.17.84.35,1.34.54a19.14,19.14,0,0,1,1.78.79,6,6,0,0,1,1.35.9,3.62,3.62,0,0,1,.86,1.17,3.76,3.76,0,0,1,.3,1.57,3.64,3.64,0,0,1-.49,1.93,4.39,4.39,0,0,1-1.31,1.37A6,6,0,0,1,216,36a9.18,9.18,0,0,1-2.25.27A8.45,8.45,0,0,1,209.71,35.39Z"/><path d="M238,35.05a12.32,12.32,0,0,1-5.8,1.24A9.36,9.36,0,0,1,225,33.4a10.66,10.66,0,0,1-2.7-7.58,11.18,11.18,0,0,1,3-8.15,10.3,10.3,0,0,1,7.7-3.1,12.27,12.27,0,0,1,4.95.86v2.62a10,10,0,0,0-5-1.26,7.65,7.65,0,0,0-5.87,2.42,9.11,9.11,0,0,0-2.25,6.46,8.68,8.68,0,0,0,2.1,6.12,7.15,7.15,0,0,0,5.52,2.28,10.41,10.41,0,0,0,5.48-1.4Z"/><path d="M244.34,35.93h-2.4V13.71h2.4Z"/><path d="M261.34,35.93h-2.4V33.56h-.06a4.94,4.94,0,0,1-4.63,2.73q-5.37,0-5.37-6.39v-9h2.39v8.58c0,3.17,1.22,4.75,3.64,4.75A3.67,3.67,0,0,0,257.8,33a5,5,0,0,0,1.14-3.4V20.93h2.4Z"/><path d="M268.66,33.76h-.06v2.17h-2.41V13.71h2.41v9.85h.06a5.68,5.68,0,0,1,5.18-3,5.53,5.53,0,0,1,4.53,2A8.3,8.3,0,0,1,280,28a9.31,9.31,0,0,1-1.83,6,6.1,6.1,0,0,1-5,2.27A4.91,4.91,0,0,1,268.66,33.76Zm-.06-6v2.1A4.46,4.46,0,0,0,269.81,33a4.32,4.32,0,0,0,6.49-.38A7.68,7.68,0,0,0,277.54,28,6.07,6.07,0,0,0,276.38,24a3.83,3.83,0,0,0-3.14-1.42,4.27,4.27,0,0,0-3.37,1.45A5.38,5.38,0,0,0,268.6,27.71Z"/></svg>